<svg width="64" height="64" viewBox="0 0 64 64" fill="none" xmlns="http://www.w3.org/2000/svg">
<path d="M6.82333 52.4875C12.4613 58.9935 20.8838 62.5145 29.3493 63.6344C32.9246 64.1094 36.5816 64.1879 40.1139 63.4689C51.437 61.168 59.8897 50.8142 63.1899 39.5888C65.0291 33.3399 63.4091 28.6816 61.5828 22.4327C58.2782 11.1376 49.3314 0.879679 37.7375 0.077868C26.1479 -0.7283 13.2133 4.77979 6.06272 14.066C-2.02894 24.5723 -2.26098 42.003 6.81904 52.4832L6.82333 52.4875Z" fill="#E8C391"/>
<g style="mix-blend-mode:multiply" opacity="0.19">
<path d="M8.58089 51.2456C12.3667 55.8429 17.5062 59.4031 22.9422 61.3336C33.6294 65.1291 47.4578 63.3076 54.8404 53.9343C57.6766 50.3348 59.7994 46.1645 61.0843 41.7459C62.382 37.2793 64.5307 29.6533 60.9597 25.7445C60.2334 24.9471 59.2494 24.2019 59.2021 23.1212C59.5803 23.2258 59.9627 23.3347 60.3409 23.4393C60.5042 21.9882 60.242 20.511 59.7264 19.147C58.897 16.9464 57.4445 15.0552 56.0136 13.2031C55.5881 12.6541 55.167 12.105 54.7416 11.5559C52.9454 9.22895 51.2995 8.06981 48.7985 6.5882C38.6958 0.605128 25.0349 4.1392 15.8389 10.4142C8.57229 15.3689 2.50463 23.1299 2.16085 32.0065C2.0835 34.011 2.29836 36.0155 2.56909 38.0026C3.24375 42.9137 5.45252 47.4457 8.58948 51.2586L8.58089 51.2456Z" fill="#C9A977"/>
</g>
<g style="mix-blend-mode:multiply" opacity="0.11">
<path d="M9.41455 49.7291C9.52628 49.8729 9.63801 50.0211 9.75404 50.1649C10.4631 51.0669 11.2108 51.9385 11.9929 52.7751C12.5472 53.3721 13.9825 54.3047 14.2704 55.0368C14.077 54.54 14.1243 53.9473 14.4036 53.4898C16.2127 55.0237 18.0219 56.5576 19.8353 58.0915C20.5486 58.6972 21.2835 59.316 22.1601 59.6385C22.9852 59.9435 23.8876 59.9653 24.7126 60.2703C25.6838 60.6277 26.5003 61.351 27.4886 61.6473C29.7962 62.3402 32.4004 60.5623 34.6134 61.5253C35.0474 61.7127 35.4084 61.9872 35.8725 62.0352C36.3065 60.5536 41.1839 61.7301 42.5332 60.6538C43.0832 60.2093 43.47 59.5339 44.1232 59.2637C44.9138 58.9369 45.812 59.316 46.6671 59.2768C47.8016 59.2245 48.7556 58.4445 49.6236 57.6993C52.6059 55.1239 57.423 51.7337 57.4273 47.3542C57.4273 47.1102 57.4273 46.8269 57.6164 46.67C57.7496 46.5567 57.943 46.548 58.102 46.4783C58.6864 46.2081 58.5532 45.3497 58.6778 44.7135C58.7724 44.2428 59.056 43.8376 59.331 43.4454C59.8123 42.7569 60.2979 42.0684 60.6975 41.3276C61.9523 38.9831 61.6515 35.327 61.2733 32.7604C60.8393 29.7841 59.8123 26.8906 58.2438 24.3326C57.6336 23.3435 56.9203 22.302 56.9933 21.1385C57.2898 21.1472 57.5133 20.8291 57.5262 20.5284C57.5391 20.2277 57.3973 19.9445 57.2597 19.6787C57.4832 19.8835 57.87 19.6482 57.9215 19.3518C57.9731 19.0555 57.8184 18.7592 57.668 18.4977C56.9933 17.3255 56.3187 16.1577 55.6397 14.9855C55.2787 14.3579 54.9092 13.7217 54.3978 13.2119C53.5985 12.4144 52.5156 11.9917 51.5616 11.3947C49.7869 10.2835 48.4333 8.56225 46.6241 7.50769C44.8924 6.50107 42.6578 5.86485 40.6854 5.57289C39.2028 5.35501 37.2992 4.73186 35.8424 4.99332C35.142 5.11969 34.4802 5.45959 33.9688 5.96508C35.9284 7.59921 37.3679 9.86519 38.0254 12.3491C36.2936 10.8892 34.6994 9.26819 33.2641 7.50769C32.7141 6.83226 32.0996 6.08274 31.2444 5.95201C30.8963 5.89972 30.5354 5.95637 30.1916 5.86921C29.8134 5.77335 29.4997 5.50752 29.1302 5.38115C27.7852 4.91052 26.5733 6.30934 25.8127 7.53384C25.6752 7.75608 25.5334 7.98704 25.4689 8.24414C25.2928 8.96316 25.7483 9.6691 26.178 10.2705C28.4856 13.5169 30.5998 16.9856 31.6483 20.8422C30.6213 19.0991 29.59 17.3604 28.5629 15.6173C28.7391 16.2187 28.911 16.8244 29.0872 17.4257C27.8883 15.9398 26.6937 14.4495 25.4947 12.9635C24.3087 11.4906 23.041 9.9567 21.2835 9.30305C21.2147 10.1789 21.4811 11.0636 21.6015 11.8697C21.0041 11.7695 20.424 11.5821 19.831 11.4209C19.5689 11.3512 19.3067 11.2814 19.0489 11.2117C18.6321 11.0984 18.2024 10.9851 17.7769 11.0548C16.7972 11.2074 16.1956 12.2619 16.0495 13.2555C15.8002 14.9375 16.4362 16.6065 17.0636 18.184C16.3073 18.2886 15.6197 17.7221 15.1685 17.1033C14.713 16.4845 14.3649 15.7611 13.7547 15.2948C13.0285 14.7414 11.9972 14.663 11.1678 15.0377C10.3385 15.4125 9.71965 16.21 9.4876 17.0989C9.17391 18.3016 9.52198 19.5697 9.87006 20.7637C10.3299 22.3499 10.7897 23.9405 11.2538 25.5266C10.9186 25.2216 6.60847 21.779 7.09835 21.2256C3.52307 25.2826 3.06327 31.318 3.99576 36.6779C4.82942 41.4583 6.49245 45.8944 9.43604 49.7335L9.41455 49.7291Z" fill="#C9A977"/>
</g>
<path d="M6.33775 30.6338C6.47956 31.257 6.67294 31.867 6.91788 32.4553C7.57535 34.0328 8.98054 35.2094 9.54348 36.7868C10.3256 38.9875 10.7467 40.8743 12.0402 42.9224C15.233 47.973 18.9501 52.6836 23.1055 56.9541C24.2056 58.0828 25.6022 59.2724 27.1406 58.9804C27.1277 58.9804 23.2516 52.5049 22.8648 51.9646C20.8967 49.2018 19.1606 46.2822 17.3988 43.3843C14.1802 38.0767 11.069 32.695 8.34456 27.1085C8.15118 26.7119 7.94491 26.3023 7.59254 26.0408C7.24017 25.7837 6.69013 25.7445 6.40221 26.0757C6.24751 26.2587 6.20024 26.5071 6.16586 26.7468C5.98108 28.0366 6.04554 29.3614 6.33346 30.6338H6.33775Z" fill="#8C5F4D"/>
<path d="M14.5411 27.6445C15.0009 28.0192 15.5166 28.346 15.942 28.76C17.171 29.9758 17.4804 31.8278 18.1551 33.4314C18.7438 34.8303 19.6376 36.0678 20.5229 37.2967C24.7126 43.0968 28.8981 48.8968 33.0879 54.6969C34.3599 56.4617 35.9327 58.3922 38.0899 58.4706C38.395 58.4837 38.7259 58.4444 38.9493 58.2309C39.379 57.8169 39.1384 57.0936 38.8548 56.5619C36.762 52.627 34.3083 48.7661 31.9277 45.0141C29.0313 40.4429 26.135 35.8761 23.2387 31.3049C21.3608 28.3417 19.4829 25.3785 17.605 22.4153C16.3717 20.4717 14.6572 16.1577 12.096 15.6129C10.6221 16.0792 10.3556 18.1622 10.9315 19.6133C11.5073 21.0644 12.6203 22.2758 13.007 23.7923C13.2606 24.7815 13.1961 25.884 13.7247 26.7555C13.9352 27.1041 14.2231 27.383 14.5368 27.6401L14.5411 27.6445Z" fill="#8C5F4D"/>
<path d="M19.7837 16.4975C20.0458 17.1076 20.3166 17.7133 20.5959 18.3147C22.9121 23.2432 26.0791 27.7011 29.2247 32.1285C30.4924 33.9108 31.7558 35.6887 33.0234 37.471C33.118 37.6061 33.2383 37.7542 33.4016 37.7499C33.6938 37.7499 33.7583 37.3185 33.9946 37.1354C34.3298 36.874 34.7853 37.2357 35.0517 37.5669C35.8639 38.5735 36.7276 39.8938 36.1905 41.0748C36.0702 41.3362 35.8811 41.589 35.894 41.8809C35.9241 42.4954 36.7233 42.661 37.2519 42.966C37.7976 43.2885 38.1156 43.8898 38.4207 44.452C40.1009 47.5808 42.2023 50.4786 44.6474 53.0409C45.2791 53.7033 46.4222 54.3308 46.9765 53.5987C47.3289 53.1324 47.1097 52.4613 46.8777 51.9254C45.2318 48.1255 43.7106 44.2341 41.837 40.5388C38.1887 33.353 32.714 27.2392 28.2879 20.5327C27.5359 19.391 20.222 9.69522 18.8512 12.8153C18.5547 13.4864 18.8426 14.2577 19.1262 14.9331C19.3454 15.4517 19.5646 15.9746 19.788 16.4932L19.7837 16.4975Z" fill="#8C5F4D"/>
<path d="M35.4557 20.2408C35.9155 20.9336 36.4355 21.5786 37.0543 22.1451C37.0886 21.426 37.123 20.7027 37.1574 19.9837C39.2501 23.3696 41.6609 26.5507 44.3466 29.4747C42.9844 27.9931 42.3226 24.3152 41.3558 22.4327C40.0881 19.9575 38.6227 17.5826 36.9855 15.3384C35.6319 13.4864 34.1107 11.033 32.0265 9.99153C30.8018 9.38145 28.7993 9.11128 29.8006 11.1376C30.0928 11.7346 30.5869 12.1965 31.0253 12.6933C32.9461 14.8808 33.8614 17.844 35.4643 20.2451L35.4557 20.2408Z" fill="#8C5F4D"/>
<path d="M52.8852 29.6054C54.3978 32.2723 56.005 34.8738 57.9989 37.2313L58.0805 35.9066C58.4845 36.4251 58.8841 36.9481 59.288 37.4666C59.4212 37.6366 59.5845 37.8239 59.7951 37.8239C60.2549 37.8239 60.2678 37.1224 60.1045 36.6822C57.7496 30.3026 54.5482 24.4372 51.0761 18.6328C49.0693 15.273 46.1257 9.00669 41.5964 8.80624C41.4116 8.79752 41.201 8.8106 41.0764 8.95004C40.8831 9.16357 41.012 9.50782 41.1495 9.76057C43.7708 14.5889 46.955 19.0729 49.6795 23.8402C50.771 25.7488 51.8023 27.6924 52.8852 29.601V29.6054Z" fill="#8C5F4D"/>
<path d="M47.6211 37.9416C47.9305 38.8872 48.1625 39.8633 48.6352 40.7349C49.1036 41.6064 49.7912 42.3428 50.2639 43.21C50.8612 44.3038 51.2136 45.6982 52.3394 46.2081C52.7004 45.8202 52.6359 45.2058 52.5285 44.6829C51.8324 41.2491 50.41 37.9677 48.3817 35.1265C47.6769 34.1373 46.6413 32.9216 45.3564 32.9128C45.5842 34.5165 47.0839 36.2857 47.6211 37.9416Z" fill="#8C5F4D"/>
</svg>
